<svg height="80" viewBox="0 0 60 80" width="60" xmlns="http://www.w3.org/2000/svg">
    <g fill="none" fill-rule="evenodd">
        <rect fill="#E6E9EF" height="80" rx="6" width="60" />
        <path d="M30.733 39.267h8.498c.425 0 .769.328.769.733 0 .405-.344.733-.77.733h-8.497v8.498c0 .425-.328.769-.733.769-.405 0-.733-.344-.733-.77v-8.497H20.77c-.425 0-.769-.328-.769-.733 0-.405.344-.733.77-.733h8.497V30.77c0-.425.328-.769.733-.769.405 0 .733.344.733.77v8.497z" fill="#FFF"
            fill-rule="nonzero" />
    </g>
</svg>
