<svg xmlns="http://www.w3.org/2000/svg" width="20" height="20" viewBox="0 0 20 20">
    <path fill="#000" fill-rule="nonzero" d="M5.322 0c-1.37 0-2.74.599-3.773 1.805-2.067 2.414-2.064 6.281 0 8.697l7.89 9.232c.145.17.346.266.557.266.21 0 .411-.096.556-.266l7.898-9.224c2.067-2.413 2.067-6.282 0-8.696-2.067-2.413-5.478-2.413-7.545 0L10 2.86l-.906-1.055C8.061.6 6.691 0 5.322 0zm0 1.68c.956 0 1.918.44 2.667 1.314l1.458 1.707c.145.17.346.266.557.266.21 0 .411-.096.556-.266l1.45-1.698c1.497-1.748 3.83-1.748 5.326 0 1.498 1.748 1.498 4.58 0 6.328-2.445 2.855-4.891 5.706-7.336 8.562L2.663 9.322c-1.497-1.751-1.498-4.58 0-6.328C3.41 2.12 4.366 1.68 5.322 1.68z"/>
</svg>
